<?xml version="1.0" encoding="UTF-8" standalone="no"?>
<svg
   version="1.1"
   viewBox="-5 -10 103.38939 104.26261"
   id="svg2"
   sodipodi:docname="cartera.svg"
   width="103.38939"
   height="104.26261"
   inkscape:version="1.4.3 (0d15f75, 2025-12-25)"
   xmlns:inkscape="http://www.inkscape.org/namespaces/inkscape"
   xmlns:sodipodi="http://sodipodi.sourceforge.net/DTD/sodipodi-0.dtd"
   xmlns="http://www.w3.org/2000/svg"
   xmlns:svg="http://www.w3.org/2000/svg">
  <defs
     id="defs2" />
  <sodipodi:namedview
     id="namedview2"
     pagecolor="#ffffff"
     bordercolor="#000000"
     borderopacity="0.25"
     inkscape:showpageshadow="2"
     inkscape:pageopacity="0.0"
     inkscape:pagecheckerboard="0"
     inkscape:deskcolor="#d1d1d1"
     inkscape:zoom="5.7259259"
     inkscape:cx="52.480595"
     inkscape:cy="62.086028"
     inkscape:window-width="1920"
     inkscape:window-height="991"
     inkscape:window-x="-9"
     inkscape:window-y="-9"
     inkscape:window-maximized="1"
     inkscape:current-layer="svg2" />
  <path
     d="m 7.3205805,30.133029 h -3.5156 c -0.64453,0 -1.1719,-0.52344 -1.1719,-1.1719 v -6.25 c 0,-0.44531 0.25,-0.84766 0.64844,-1.0469 L 47.031521,-0.21077142 c 0.32813,-0.16406 0.71875,-0.16406 1.0469,0 l 43.75,21.87500042 c 0.39844,0.19922 0.64844,0.60156 0.64844,1.0469 v 6.25 c 0,0.64844 -0.52344,1.1719 -1.1719,1.1719 h -3.5156 v 1.9531 c 0,1.1406 -0.45312,2.2344 -1.2578,3.0391 -0.80469,0.80469 -1.8984,1.2578 -3.0391,1.2578 h -1.9531 v 38.281 h 1.9531 c 1.1406,0 2.2344,0.45312 3.0391,1.2578 0.80469,0.80469 1.2578,1.8984 1.2578,3.0391 v 1.9531 h 0.39062 c 2.375,0 4.2969,1.9258 4.2969,4.2969 v 3.125 c 0,0.64844 -0.52344,1.1719 -1.1719,1.1719 H 3.8049805 c -0.64453,0 -1.1719,-0.52344 -1.1719,-1.1719 v -3.125 c 0,-2.3711 1.9219,-4.2969 4.2969,-4.2969 h 0.39062 v -1.9531 c 0,-1.1406 0.45312,-2.2305 1.2578,-3.0391 0.80469,-0.80469 1.8984005,-1.2578 3.0391005,-1.2578 h 1.9531 v -38.281 h -1.9531 c -1.1406,0 -2.2344005,-0.45312 -3.0391005,-1.2578 -0.80469,-0.80469 -1.2578,-1.8984 -1.2578,-3.0391 z m 79.2970005,-2.3438 h 3.5156 v -4.3516 L 47.555181,2.1486286 4.9771805,23.437629 v 4.3516 H 24.086181 c 3.1484,-9.9609 12.473,-17.188 23.469,-17.188 10.996,0 20.316,7.2266 23.469,17.188 z m -14.48,6.25 h 11.355 c 0.51562,0 1.0156,-0.20312 1.3828,-0.57031 0.36719,-0.36719 0.57031,-0.86328 0.57031,-1.3828 v -1.9531 h -13.805 c 0.26562,1.2695 0.4375,2.5742 0.49609,3.9062 z m 7.0586,40.625 v -38.281 h -7.0586 c -0.18359,3.9219 -1.2852,7.6016 -3.0977,10.832 v 27.449 z m 6.25,6.25 v -1.9531 c 0,-0.51562 -0.20312,-1.0156 -0.57031,-1.3828 -0.36719,-0.36719 -0.86328,-0.57031 -1.3828,-0.57031 h -71.875 c -0.51562,0 -1.0156,0.20703 -1.3828,0.57031 -0.3671905,0.36719 -0.5742205,0.86328 -0.5742205,1.3828 v 1.9531 z m 2.7344,2.3438 H 6.9305805 c -1.0781,0 -1.9531,0.875 -1.9531,1.9531 v 1.9531 H 90.133481 v -1.9531 c 0,-1.0781 -0.875,-1.9531 -1.9531,-1.9531 z m -72.266,-46.875 v 38.281 h 10.156 v -27.449 c -1.8125,-3.2344 -2.9141,-6.9141 -3.0977,-10.832 z m -6.2500005,-6.25 v 1.9531 c 0,0.51953 0.20703,1.0156 0.5742205,1.3828 0.36719,0.36719 0.86328,0.57031 1.3828,0.57031 h 11.355 c 0.0625,-1.332 0.23047,-2.6367 0.5,-3.9062 z m 60.1560005,5.0781 c 0,-12.289 -9.9766,-22.266 -22.266,-22.266 -12.2894,0 -22.266,9.9766 -22.266,22.266 0,12.2894 9.9766,22.266 22.266,22.266 12.2894,0 22.266,-9.9766 22.266,-22.266 z m -14.844,39.453 h 11.719 v -23.992 c -3.0039,3.7109 -7.0625,6.5312 -11.719,8.0078 z m -2.3438,-15.367 c -1.6367,0.34375 -3.3359,0.52344 -5.0781,0.52344 -1.7422,0 -3.4375,-0.17969 -5.0781,-0.52344 v 15.367 h 10.156 z m -12.5,-0.61719 c -4.6562,-1.4727 -8.7148,-4.2969 -11.719,-8.0078 v 23.992 h 11.719 z m 7.4219,-41.828 c 10.133,0 18.359,8.2266 18.359,18.359 0,10.1324 -8.2266,18.359 -18.359,18.359 -10.1324,0 -18.359,-8.2266 -18.359,-18.359 0,-10.1324 8.2266,-18.359 18.359,-18.359 z m 0,2.3438 c -8.8398,0 -16.016,7.1758 -16.016,16.016 0,8.8402 7.1758,16.016 16.016,16.016 8.8402,0 16.016,-7.1758 16.016,-16.016 0,-8.8402 -7.1758,-16.016 -16.016,-16.016 z m -1.1719,23.328 c -0.77344,-0.17969 -1.4922,-0.57422 -2.0625,-1.1484 -0.44141,-0.44141 -0.77344,-0.96875 -0.98828,-1.5391 -0.22656,-0.60547 0.08203,-1.2812 0.6875,-1.5078 0.60547,-0.22656 1.2812,0.08203 1.5078,0.6875 0.09766,0.26172 0.25,0.5 0.44922,0.69922 0.36719,0.36719 0.86328,0.57031 1.3828,0.57031 h 0.19531 c 0.51953,0 1.0156,-0.20312 1.3828,-0.57031 0.36719,-0.36719 0.57422,-0.86328 0.57422,-1.3828 0,-0.51562 -0.20703,-1.0156 -0.57422,-1.3828 -0.36719,-0.36719 -0.86328,-0.57031 -1.3828,-0.57031 -1.1406,0 -2.2305,-0.45312 -3.0352,-1.2578 -0.80859,-0.80469 -1.2578,-1.8984 -1.2578,-3.0391 0,-1.1407 0.45312,-2.2305 1.2578,-3.0391 0.52344,-0.52344 1.1641,-0.89844 1.8672,-1.0938 v -2.1172 c 0,-0.64844 0.52344,-1.1719 1.1719,-1.1719 0.64844,0 1.1719,0.52344 1.1719,1.1719 v 2.0664 c 0.77344,0.17969 1.4922,0.57422 2.0625,1.1484 0.44141,0.44141 0.77734,0.96875 0.99219,1.5391 0.22656,0.60547 -0.08203,1.2812 -0.6875,1.5078 -0.60938,0.22656 -1.2812,-0.08594 -1.5078,-0.6875 -0.09766,-0.26172 -0.24609,-0.5 -0.44922,-0.70312 -0.36719,-0.36719 -0.86328,-0.57031 -1.3789,-0.57031 h -0.19922 c -0.51562,0 -1.0117,0.20703 -1.3789,0.57031 -0.36719,0.36719 -0.57031,0.86328 -0.57031,1.3828 0,0.51952 0.20312,1.0156 0.57031,1.3828 0.36719,0.36719 0.86328,0.57031 1.3789,0.57031 1.1406,0 2.2344,0.45312 3.0391,1.2578 0.80469,0.80469 1.2578,1.8984 1.2578,3.0391 0,1.1407 -0.45313,2.2344 -1.2578,3.0391 -0.52344,0.52344 -1.1641,0.89844 -1.8672,1.0938 v 2.1172 c 0,0.64844 -0.52344,1.1719 -1.1719,1.1719 -0.64453,0 -1.1719,-0.52344 -1.1719,-1.1719 v -2.0625 z"
     fill-rule="evenodd"
     id="path1" />
  <text
     x="-2.4450195"
     y="112.08603"
     font-size="5px"
     font-weight="bold"
     font-family="'Arbeit Regular', Helvetica, Arial-Unicode, Arial, Sans-serif"
     fill="#000000"
     id="text1">Created by Arkinasi</text>
  <text
     x="-2.4450195"
     y="117.08603"
     font-size="5px"
     font-weight="bold"
     font-family="'Arbeit Regular', Helvetica, Arial-Unicode, Arial, Sans-serif"
     fill="#000000"
     id="text2">from Noun Project</text>
  <rect
     style="fill:#000000;fill-opacity:0"
     id="rect2"
     width="103.38939"
     height="104.26261"
     x="-5"
     y="-10" />
</svg>
