<?xml version="1.0" encoding="UTF-8" standalone="no"?>
<svg
   version="1.1"
   viewBox="-5 -10 89.843399 89.8442"
   id="svg2"
   sodipodi:docname="noun-money-deposit-8068631.svg"
   width="89.843399"
   height="89.8442"
   inkscape:version="1.4.3 (0d15f75, 2025-12-25)"
   xmlns:inkscape="http://www.inkscape.org/namespaces/inkscape"
   xmlns:sodipodi="http://sodipodi.sourceforge.net/DTD/sodipodi-0.dtd"
   xmlns="http://www.w3.org/2000/svg"
   xmlns:svg="http://www.w3.org/2000/svg">
  <defs
     id="defs2" />
  <sodipodi:namedview
     id="namedview2"
     pagecolor="#ffffff"
     bordercolor="#000000"
     borderopacity="0.25"
     inkscape:showpageshadow="2"
     inkscape:pageopacity="0.0"
     inkscape:pagecheckerboard="0"
     inkscape:deskcolor="#d1d1d1"
     showgrid="false"
     inkscape:zoom="5.7259259"
     inkscape:cx="44.796248"
     inkscape:cy="48.463777"
     inkscape:window-width="1920"
     inkscape:window-height="991"
     inkscape:window-x="-9"
     inkscape:window-y="-9"
     inkscape:window-maximized="1"
     inkscape:current-layer="svg2" />
  <path
     d="m 53.5938,65.0004 h 5.0781 c 2.375,0 4.2969,1.9219 4.2969,4.2969 v 6.25 c 0,2.375 -1.9219,4.2969 -4.2969,4.2969 H -0.7031 C -3.0781,79.8442 -5,77.9223 -5,75.5473 v -6.25 c 0,-2.375 1.9219,-4.2969 4.2969,-4.2969 H 4.375 V 8.3594 C 4.375,6.7969 4.98438,5.3125 6.0938,4.2188 7.1876,3.125 8.6876,2.5 10.2344,2.5 h 31.062 c 3.8281,-7.4219 11.578,-12.5 20.5,-12.5 12.719,0 23.047,10.328 23.047,23.047 0,12.719 -10.328,23.047 -23.047,23.047 -2.8906,0 -5.6562,-0.53125 -8.2031,-1.5 z M 40.2498,4.8444 h -30.016 c -0.9375,0 -1.8281,0.375 -2.4844,1.0312 C 7.0931,6.5318 6.7182,7.4225 6.7182,8.36 v 62.891 h 3.9062 V 16.173 c 0,-0.64062 0.53125,-1.1719 1.1719,-1.1719 2.8125,0 5.0781,-2.2812 5.0781,-5.0781 0,-0.64062 0.53125,-1.1719 1.1719,-1.1719 h 21.109 c 0.25,-1.3438 0.625,-2.6562 1.1094,-3.9062 z m 11,28.703 c -1.3906,-0.71875 -2.7031,-1.5781 -3.9062,-2.5469 v 40.25 h 3.9062 z m -6.25,-4.7188 c -3.875,-4.125 -6.25,-9.6719 -6.25,-15.781 0,-0.65625 0.03125,-1.3125 0.07813,-1.9531 h -19.703 c -0.5,3.1562 -3,5.6562 -6.1562,6.1562 v 54 h 32.031 z m -23.281,16.641 h -2.1094 c -0.64062,0 -1.1719,-0.53125 -1.1719,-1.1719 0,-0.64065 0.53125,-1.1719 1.1719,-1.1719 h 2.0625 c 0.1875,-0.78125 0.57812,-1.4844 1.1406,-2.0625 0.4375,-0.4375 0.96875,-0.78125 1.5469,-0.98438 0.60938,-0.21875 1.2812,0.07813 1.5156,0.6875 0.21875,0.60938 -0.07813,1.2812 -0.6875,1.5 -0.26562,0.09375 -0.5,0.25 -0.70312,0.45312 -0.35938,0.35938 -0.57812,0.85938 -0.57812,1.375 v 0.20312 c 0,0.51562 0.20312,1.0156 0.57812,1.375 0.375,0.3594 0.85938,0.57812 1.375,0.57812 0.51562,0 1.0156,-0.20312 1.375,-0.57812 0.3594,-0.375 0.57812,-0.85938 0.57812,-1.375 0,-1.1406 0.45312,-2.2344 1.25,-3.0469 0.8125,-0.79688 1.9062,-1.25 3.0469,-1.25 1.1407,0 2.2344,0.45312 3.0469,1.25 0.51562,0.53125 0.89062,1.1719 1.0938,1.875 h 2.1094 c 0.64062,0 1.1719,0.53125 1.1719,1.1719 0,0.64065 -0.53125,1.1719 -1.1719,1.1719 H 36.297 c -0.1875,0.78125 -0.57812,1.4844 -1.1406,2.0625 -0.4375,0.4375 -0.96875,0.78125 -1.5469,0.98438 -0.60938,0.21875 -1.2812,-0.07813 -1.5156,-0.6875 -0.21875,-0.60938 0.07813,-1.2812 0.6875,-1.5 0.26562,-0.09375 0.5,-0.25 0.70312,-0.45312 0.35938,-0.35938 0.57812,-0.85938 0.57812,-1.375 V 44.2977 c 0,-0.51562 -0.20312,-1.0156 -0.57812,-1.375 -0.375,-0.3594 -0.85938,-0.57812 -1.375,-0.57812 -0.51562,0 -1.0156,0.20312 -1.375,0.57812 -0.3594,0.375 -0.57812,0.85938 -0.57812,1.375 0,1.1406 -0.45312,2.2344 -1.25,3.0469 -0.8125,0.79688 -1.9062,1.25 -3.0469,1.25 -1.1407,0 -2.2344,-0.45312 -3.0469,-1.25 -0.51562,-0.53125 -0.89062,-1.1719 -1.0938,-1.875 z m -17.344,21.875 h -5.0781 c -1.0781,0 -1.9531,0.875 -1.9531,1.9531 v 6.25 c 0,1.0781 0.875,1.9531 1.9531,1.9531 h 59.375 c 1.0781,0 1.9531,-0.875 1.9531,-1.9531 v -6.25 c 0,-1.0781 -0.875,-1.9531 -1.9531,-1.9531 h -5.0781 v 3.9062 h 1.9531 c 0.64062,0 1.1719,0.53125 1.1719,1.1719 0,0.64065 -0.53125,1.1719 -1.1719,1.1719 H 2.4217 c -0.64062,0 -1.1719,-0.53125 -1.1719,-1.1719 0,-0.64065 0.53125,-1.1719 1.1719,-1.1719 h 1.9531 z m 57.422,-75 c -11.422,0 -20.703,9.2812 -20.703,20.703 0,11.4218 9.2812,20.703 20.703,20.703 11.4218,0 20.703,-9.2812 20.703,-20.703 0,-11.4218 -9.2812,-20.703 -20.703,-20.703 z m 0,3.9062 c 9.2656,0 16.797,7.5312 16.797,16.797 0,9.2658 -7.5312,16.797 -16.797,16.797 -9.2658,0 -16.797,-7.5312 -16.797,-16.797 0,-9.2658 7.5312,-16.797 16.797,-16.797 z m 0,2.3438 c -7.9844,0 -14.453,6.4688 -14.453,14.453 0,7.9842 6.4688,14.453 14.453,14.453 7.9842,0 14.453,-6.4688 14.453,-14.453 0,-7.9842 -6.4688,-14.453 -14.453,-14.453 z m -0.82812,24.656 -6.25,-6.25 c -0.45312,-0.45312 -0.45312,-1.2031 0,-1.6562 0.45312,-0.4531 1.2031,-0.45312 1.6562,0 l 4.25,4.25 V 3.6724 c 0,-0.64062 0.53125,-1.1719 1.1719,-1.1719 0.64065,0 1.1719,0.53125 1.1719,1.1719 v 15.922 l 4.25,-4.25 c 0.45312,-0.45312 1.2031,-0.45312 1.6562,0 0.4531,0.45312 0.45312,1.2031 0,1.6562 l -6.25,6.25 c -0.21875,0.21875 -0.51562,0.34375 -0.82812,0.34375 -0.3125,0 -0.60938,-0.125 -0.82812,-0.34375 z"
     fill-rule="evenodd"
     id="path1" />
  <rect
     style="fill:#000000;fill-opacity:0"
     id="rect2"
     width="98.499352"
     height="108.80336"
     x="-9.3149405"
     y="-18.615763" />
  <rect
     style="fill:#000000;fill-opacity:0"
     id="rect3"
     width="96.403625"
     height="99.547218"
     x="-6.8699203"
     y="-17.742542" />
  <rect
     style="fill:#000000;fill-opacity:0"
     id="rect4"
     width="2.4450195"
     height="4.890039"
     x="-7.3938532"
     y="79.534302" />
  <rect
     style="fill:#000000;fill-opacity:0"
     id="rect5"
     width="93.958603"
     height="107.23157"
     x="-7.5684972"
     y="-20.012917" />
</svg>
