<?xml version="1.0" encoding="UTF-8" standalone="no"?>
<svg
   width="67.275803"
   height="51.009594"
   viewBox="0 0 67.275803 51.009595"
   fill="none"
   version="1.1"
   id="svg10"
   sodipodi:docname="logo.svg"
   inkscape:version="1.4.3 (0d15f75, 2025-12-25)"
   xmlns:inkscape="http://www.inkscape.org/namespaces/inkscape"
   xmlns:sodipodi="http://sodipodi.sourceforge.net/DTD/sodipodi-0.dtd"
   xmlns="http://www.w3.org/2000/svg"
   xmlns:svg="http://www.w3.org/2000/svg">
  <defs
     id="defs10" />
  <sodipodi:namedview
     id="namedview10"
     pagecolor="#ffffff"
     bordercolor="#000000"
     borderopacity="0.25"
     inkscape:showpageshadow="2"
     inkscape:pageopacity="0.0"
     inkscape:pagecheckerboard="0"
     inkscape:deskcolor="#d1d1d1"
     inkscape:zoom="6.3321429"
     inkscape:cx="52.194021"
     inkscape:cy="33.085166"
     inkscape:window-width="1920"
     inkscape:window-height="991"
     inkscape:window-x="-9"
     inkscape:window-y="-9"
     inkscape:window-maximized="1"
     inkscape:current-layer="svg10" />
  <path
     d="m 94.169931,43.21729 c -6.26509,0 -11.342193,-5.1116 -11.342193,-11.414 0,-6.237 4.973103,-11.305 11.147093,-11.4053 0.065,-0.0044 0.1301,-0.0044 0.1951,-0.0044 0.0648,0 0.1301,0 0.1951,0.0044 6.173999,0.1003 11.147299,5.1683 11.147299,11.4053 0,6.3024 -5.0773,11.414 -11.342399,11.414 z m 11.342399,-28.6321 v 4.3386 c -3.0179,-2.6911 -6.989599,-4.3266 -11.342399,-4.3266 -9.447493,0 -17.104293,7.7067 -17.104293,17.2061 0,9.5037 7.6568,17.2105 17.104293,17.2105 4.3528,0 8.324499,-1.6356 11.342399,-4.3266 v 4.3112 h 5.784 v -34.4132 z"
     fill="#222222"
     id="path1" />
  <path
     d="m 94.364931,20.39799 c -0.065,-0.0044 -0.1303,-0.0043 -0.1951,-0.0043 -0.065,0 -0.13,-10e-5 -0.195,0.0043 0.065,0.0041 0.13,0.0087 0.195,0.0087 0.0648,0 0.1301,-0.0046 0.1951,-0.0087 z"
     fill="#222222"
     id="path2" />
  <path
     d="m 142.70433,31.71229 17.121,-17.2233 h -8.181 l -14.277,14.3624 h -2.923 V 3.3412969 h -5.783 V 49.00069 h 5.783 v -14.331 h 2.862 l 1.227,1.2383 12.916,12.993 h 8.181 l -17.004,-17.1056 z"
     fill="#222222"
     id="path3" />
  <path
     d="m 249.35133,31.80969 v 17.1887 h -5.784 v -20.015 c 0,-4.7409 -3.82,-8.5878 -8.537,-8.5878 -4.713,0 -8.537,3.8469 -8.537,8.5878 v 2.8263 17.1887 h -5.784 v -17.1887 l 0.017,-2.6169 c 0.005,-0.0698 0.005,-0.1396 0.005,-0.2094 0,-0.0697 0,-0.1395 -0.005,-0.2093 0,-0.1221 -0.004,-0.2399 -0.017,-0.3576 -0.286,-4.475 -3.993,-8.0209 -8.515,-8.0209 -4.713,0 -8.537,3.8469 -8.537,8.5878 v 20.015 h -5.784 v -34.4123 h 5.784 v 2.835 c 2.38,-1.7838 5.333,-2.835 8.528,-2.835 h 0.013 c 3.191,0.0044 6.131,1.0555 8.511,2.8306 1.097,0.82 2.073,1.7926 2.901,2.8917 0.819,-1.0947 1.795,-2.063 2.883,-2.8786 2.384,-1.7882 5.337,-2.8437 8.537,-2.8437 3.2,0 6.152,1.0555 8.537,2.8437 3.503,2.6213 5.775,6.8214 5.775,11.5536 z"
     fill="#222222"
     id="path4" />
  <path
     d="m 122.87433,3.3386799 h -5.784 V 48.99839 h 5.784 z"
     fill="#222222"
     id="path5" />
  <path
     d="m 163.97933,28.86829 c 1.271,-4.8148 5.598,-8.3784 10.766,-8.4654 0.065,-0.0043 0.13,-0.0043 0.195,-0.0043 0.065,0 0.13,0 0.195,0.0043 5.169,0.087 9.5,3.6506 10.77,8.4654 z m 27.827,5.8185 c 0.156,-0.9377 0.238,-1.8972 0.238,-2.8786 0,-1.0031 -0.086,-1.9844 -0.251,-2.9399 -1.383,-8.0993 -8.403,-14.2665 -16.853,-14.2665 -9.443,0 -17.104,7.7071 -17.104,17.2064 0,9.5038 7.661,17.2102 17.104,17.2102 6.296,0 11.793,-3.4194 14.763,-8.5136 h -7.423 c -1.976,1.6969 -4.543,2.7175 -7.34,2.7175 -2.801,0 -5.363,-1.0206 -7.34,-2.7175 -1.752,-1.4913 -3.044,-3.5151 -3.638,-5.818 z"
     fill="#222222"
     id="path6" />
  <path
     d="m 255.44033,63.31669 v 0.0043 h -0.16 c 0.052,0 0.108,0 0.16,-0.0043 z"
     fill="#222222"
     id="path7" />
  <path
     d="m 277.08333,14.58609 -6.697,14.3101 -2.729,5.8182 -0.636,1.3649 -0.641,-1.3649 -2.723,-5.8182 -6.699,-14.3101 h -6.395 l 6.698,14.3101 2.722,5.8182 2.072,4.4226 0.657,1.3957 1.11,2.377 -2.85,6.0887 -1.686,3.6026 c -0.017,0.052 -0.043,0.1046 -0.069,0.157 -1.379,2.8219 -4.262,4.7627 -7.596,4.7627 h -2.271 v 5.638 c 0.728,0.1146 1.472,0.18 2.232,0.18 0.962,0 1.903,-0.0957 2.809,-0.2789 2.073,-0.4143 3.989,-1.2822 5.633,-2.4904 0.095,-0.0657 0.184,-0.1352 0.277,-0.2093 1.049,-0.8156 1.986,-1.7708 2.775,-2.8394 0.451,-0.6106 0.853,-1.2604 1.208,-1.9408 l 0.465,-0.9945 c 0.009,-0.013 0.012,-0.0261 0.018,-0.0392 l 2.249,-4.8107 0.346,-0.7371 2.853,-6.0931 1.11,-2.3726 2.723,-5.8183 2.729,-5.8182 6.697,-14.3101 z"
     fill="#222222"
     id="path8" />
  <path
     d="M 3.4743376,49.00069 24.849038,3.3412929 h 6.5816 l 3.139,6.7036171 3.1954,6.82578 15.0403,32.13 h -6.3943 l -11.8414,-25.2999 -3.1954,-6.8258 -3.2344,-6.9085701 L 9.8689176,49.00069 Z"
     fill="#4987be"
     id="path9"
     style="fill:#ffffff;fill-opacity:1" />
  <path
     d="m 16.302938,49.00069 21.3744,-45.6593931 h 6.5816 l 3.1391,6.7036131 3.1954,6.82578 15.0364,32.1219 -6.3841,0.0212 -11.8477,-25.313 -3.1955,-6.8258 -3.2344,-6.9085701 -18.2709,39.0342701 z"
     fill="#4987be"
     id="path10"
     style="fill:#ffffff;fill-opacity:1" />
  <rect
     style="fill:#000000;fill-opacity:0"
     id="rect11"
     width="0.31584886"
     height="12.633954"
     x="70.592216"
     y="2.5267906" />
  <rect
     style="fill:#000000;fill-opacity:0"
     id="rect12"
     width="63.327694"
     height="47.693176"
     x="3.6322622"
     y="2.6847143" />
  <rect
     style="fill:#000000;fill-opacity:0"
     id="rect13"
     width="67.74958"
     height="46.745628"
     x="3.3164129"
     y="3.4743366" />
  <rect
     style="fill:#000000;fill-opacity:0"
     id="rect14"
     width="69.802597"
     height="49.904118"
     x="3.6322622"
     y="2.6847143"
     ry="0" />
  <rect
     style="fill:#000000;fill-opacity:0"
     id="rect15"
     width="63.801456"
     height="52.272984"
     x="3.3164129"
     y="-0.47377396" />
  <rect
     style="fill:#000000;fill-opacity:0"
     id="rect16"
     width="67.275803"
     height="51.009594"
     x="0"
     y="0" />
  <rect
     style="fill:#000000;fill-opacity:0"
     id="rect17"
     width="72.171463"
     height="54.64185"
     x="0.78962213"
     y="0.94754654" />
</svg>
