<?xml version="1.0" encoding="UTF-8" standalone="no"?>
<svg
   version="1.1"
   viewBox="-5 -10 99.372574 100.07115"
   id="svg2"
   sodipodi:docname="transferencia.svg"
   width="99.372574"
   height="100.07115"
   inkscape:version="1.4.3 (0d15f75, 2025-12-25)"
   xmlns:inkscape="http://www.inkscape.org/namespaces/inkscape"
   xmlns:sodipodi="http://sodipodi.sourceforge.net/DTD/sodipodi-0.dtd"
   xmlns="http://www.w3.org/2000/svg"
   xmlns:svg="http://www.w3.org/2000/svg">
  <defs
     id="defs2" />
  <sodipodi:namedview
     id="namedview2"
     pagecolor="#ffffff"
     bordercolor="#000000"
     borderopacity="0.25"
     inkscape:showpageshadow="2"
     inkscape:pageopacity="0.0"
     inkscape:pagecheckerboard="0"
     inkscape:deskcolor="#d1d1d1"
     inkscape:zoom="5.7259259"
     inkscape:cx="47.939845"
     inkscape:cy="55.97348"
     inkscape:window-width="1920"
     inkscape:window-height="991"
     inkscape:window-x="-9"
     inkscape:window-y="-9"
     inkscape:window-maximized="1"
     inkscape:current-layer="svg2" />
  <path
     d="M 66.84223,13.77048 V 7.2235802 c 0,-1.0781 -0.875,-1.9531 -1.9531,-1.9531 h -18.75 c -0.64844,0 -1.1719,-0.52344 -1.1719,-1.1719 0,-0.64846 0.52344,-1.1719 1.1719,-1.1719 h 18.75 c 2.375,0 4.2969,1.9219 4.2969,4.2969 V 13.77048 l 2.6875,-2.6875 c 0.45703,-0.45703 1.1992,-0.45703 1.6562,0 0.457,0.45703 0.45703,1.1992 0,1.6562 l -4.6875,4.6875 c -0.21875,0.21875 -0.51562,0.34375 -0.82812,0.34375 -0.3125,0 -0.60938,-0.125 -0.82812,-0.34375 l -4.6875,-4.6875 c -0.45703,-0.45703 -0.45703,-1.1992 0,-1.6562 0.45703,-0.457 1.1992,-0.45703 1.6562,0 z m -50,49.406 -2.6875,2.6875 c -0.45703,0.45703 -1.1992,0.45703 -1.6562,0 -0.457,-0.45703 -0.45703,-1.1992 0,-1.6562 l 4.6875,-4.6875 c 0.21875,-0.21875 0.51562,-0.34375 0.82812,-0.34375 0.3125,0 0.60938,0.125 0.82812,0.34375 l 4.6875,4.6875 c 0.45703,0.45703 0.45703,1.1992 0,1.6562 -0.45703,0.457 -1.1992,0.45703 -1.6562,0 l -2.6875,-2.6875 v 6.5469 c 0,1.0781 0.875,1.9531 1.9531,1.9531 h 18.75 c 0.64844,0 1.1719,0.52344 1.1719,1.1719 0,0.64846 -0.52344,1.1719 -1.1719,1.1719 h -18.75 c -2.375,0 -4.2969,-1.9219 -4.2969,-4.2969 z M -1.9077697,46.28548 V -0.58951978 c 0,-3.23440002 2.62499995,-5.85940002 5.8594,-5.85940002 H 32.07663 c 3.2344,0 5.8594,2.625 5.8594,5.85940002 V 46.28548 c 0,3.2344 -2.625,5.8594 -5.8594,5.8594 H 3.9516303 c -3.23440005,0 -5.8594,-2.625 -5.8594,-5.8594 z M 35.59223,40.42608 V -0.58991978 c 0,-1.94140002 -1.5742,-3.51560002 -3.5156,-3.51560002 H 3.9516303 c -1.9414,0 -3.51560005,1.5742 -3.51560005,3.51560002 V 40.42608 Z m -18.75,-11.785 c -1.2305,-0.1875 -2.375,-0.76172 -3.2656,-1.6484 -0.60156,-0.60156 -1.0586,-1.3203 -1.3477,-2.1016 -0.22656,-0.60547 0.08594,-1.2812 0.6875,-1.5078 0.60547,-0.22656 1.2812,0.08594 1.5078,0.6875 0.17578,0.46875 0.44922,0.89844 0.80859,1.2617 0.66016,0.66016 1.5547,1.0312 2.4844,1.0312 h 0.29297 c 0.93359,0 1.8281,-0.37109 2.4844,-1.0312 0.66016,-0.66016 1.0312,-1.5547 1.0312,-2.4844 0,-0.93359 -0.37109,-1.8281 -1.0312,-2.4844 -0.66016,-0.66016 -1.5547,-1.0312 -2.4844,-1.0312 -1.5547,0 -3.043,-0.61719 -4.1445,-1.7148 -1.0977,-1.1016 -1.7148,-2.5898 -1.7148,-4.1445 0,-1.5547 0.61719,-3.043 1.7148,-4.1444998 0.82031,-0.81641 1.8555,-1.3672 2.9727,-1.5977 v -2.0703 c 0,-0.64844 0.52344,-1.1719 1.1719,-1.1719 0.64844,0 1.1719,0.52344 1.1719,1.1719 v 2.0195 c 1.2305,0.1875 2.375,0.76172 3.2656,1.6484 0.60156,0.60156 1.0586,1.3202998 1.3477,2.1015998 0.22656,0.60547 -0.08594,1.2812 -0.6875,1.5078 -0.60547,0.22656 -1.2812,-0.08594 -1.5078,-0.6875 -0.17578,-0.46875 -0.44922,-0.89844 -0.80859,-1.2617 -0.66016,-0.66016 -1.5547,-1.0311998 -2.4844,-1.0311998 h -0.29297 c -0.93359,0 -1.8281,0.3710898 -2.4844,1.0311998 -0.66016,0.66016 -1.0312,1.5547 -1.0312,2.4844 0,0.93359 0.37109,1.8281 1.0312,2.4844 0.66016,0.66016 1.5547,1.0312 2.4844,1.0312 1.5547,0 3.043,0.61719 4.1445,1.7148 1.0977,1.1016 1.7148,2.5898 1.7148,4.1445 0,1.5547 -0.61719,3.043 -1.7148,4.1445 -0.82031,0.81641 -1.8555,1.3672 -2.9727,1.5977 v 2.0703 c 0,0.64844 -0.52344,1.1719 -1.1719,1.1719 -0.64846,0 -1.1719,-0.52344 -1.1719,-1.1719 z m -16.40599975,14.129 v 3.5156 c 0,1.9414 1.57420005,3.5156 3.51560005,3.5156 H 32.07683 c 1.9414,0 3.5156,-1.5742 3.5156,-3.5156 v -3.5156 z M 48.09223,77.53608 v -46.875 c 0,-3.2344 2.625,-5.8594 5.8594,-5.8594 h 28.125 c 3.2344,0 5.8594,2.625 5.8594,5.8594 v 46.875 c 0,3.2344 -2.625,5.8594 -5.8594,5.8594 h -28.125 c -3.2344,0 -5.8594,-2.625 -5.8594,-5.8594 z m 37.5,-5.8594 v -41.016 c 0,-1.9414 -1.5742,-3.5156 -3.5156,-3.5156 h -28.125 c -1.9414,0 -3.5156,1.5742 -3.5156,3.5156 v 41.016 z m -18.75,-11.785 c -1.2305,-0.1875 -2.375,-0.76172 -3.2656,-1.6484 -0.60156,-0.60156 -1.0586,-1.3203 -1.3477,-2.1016 -0.22656,-0.60547 0.08594,-1.2812 0.6875,-1.5078 0.60547,-0.22656 1.2812,0.08594 1.5078,0.6875 0.17578,0.46875 0.44922,0.89844 0.80859,1.2617 0.66016,0.66016 1.5547,1.0312 2.4844,1.0312 h 0.29297 c 0.93359,0 1.8281,-0.37109 2.4844,-1.0312 0.66016,-0.66016 1.0312,-1.5547 1.0312,-2.4844 0,-0.93359 -0.37109,-1.8281 -1.0312,-2.4844 -0.66016,-0.66016 -1.5547,-1.0312 -2.4844,-1.0312 -1.5547,0 -3.043,-0.61719 -4.1445,-1.7148 -1.0977,-1.1016 -1.7148,-2.5898 -1.7148,-4.1445 0,-1.5547 0.61719,-3.043 1.7148,-4.1445 0.82031,-0.81641 1.8555,-1.3672 2.9727,-1.5977 v -2.0703 c 0,-0.64844 0.52344,-1.1719 1.1719,-1.1719 0.64844,0 1.1719,0.52344 1.1719,1.1719 v 2.0195 c 1.2305,0.1875 2.375,0.76172 3.2656,1.6484 0.60156,0.60156 1.0586,1.3203 1.3477,2.1016 0.22656,0.60547 -0.08594,1.2812 -0.6875,1.5078 -0.60547,0.22656 -1.2812,-0.08594 -1.5078,-0.6875 -0.17578,-0.46875 -0.44922,-0.89844 -0.80859,-1.2617 -0.66016,-0.66016 -1.5547,-1.0312 -2.4844,-1.0312 h -0.29297 c -0.93359,0 -1.8281,0.37109 -2.4844,1.0312 -0.66016,0.66016 -1.0312,1.5547 -1.0312,2.4844 0,0.93359 0.37109,1.8281 1.0312,2.4844 0.66016,0.66016 1.5547,1.0312 2.4844,1.0312 1.5547,0 3.043,0.61719 4.1445,1.7148 1.0977,1.1016 1.7148,2.5898 1.7148,4.1445 0,1.5547 -0.61719,3.043 -1.7148,4.1445 -0.82031,0.81641 -1.8555,1.3672 -2.9727,1.5977 v 2.0703 c 0,0.64844 -0.52344,1.1719 -1.1719,1.1719 -0.64846,0 -1.1719,-0.52344 -1.1719,-1.1719 z m -16.406,14.129 v 3.5156 c 0,1.9414 1.5742,3.5156 3.5156,3.5156 h 28.125 c 1.9414,0 3.5156,-1.5742 3.5156,-3.5156 v -3.5156 z"
     fill-rule="evenodd"
     id="path1" />
  <text
     x="-6.9857697"
     y="105.97348"
     font-size="5px"
     font-weight="bold"
     font-family="'Arbeit Regular', Helvetica, Arial-Unicode, Arial, Sans-serif"
     fill="#000000"
     id="text1">Created by Arkinasi</text>
  <text
     x="-6.9857697"
     y="110.97348"
     font-size="5px"
     font-weight="bold"
     font-family="'Arbeit Regular', Helvetica, Arial-Unicode, Arial, Sans-serif"
     fill="#000000"
     id="text2">from Noun Project</text>
  <rect
     style="fill:#000000;fill-opacity:0"
     id="rect2"
     width="93.609314"
     height="101.99224"
     x="-7.4450192"
     y="-11.746442" />
  <rect
     style="fill:#000000;fill-opacity:0"
     id="rect3"
     width="99.372574"
     height="100.07115"
     x="-5"
     y="-10" />
</svg>
