<?xml version="1.0" encoding="UTF-8" standalone="no"?>
<svg
   version="1.1"
   viewBox="-5 -10 104.26261 103.56403"
   id="svg2"
   sodipodi:docname="transacciones.svg"
   width="104.26261"
   height="103.56403"
   inkscape:version="1.4.3 (0d15f75, 2025-12-25)"
   xmlns:inkscape="http://www.inkscape.org/namespaces/inkscape"
   xmlns:sodipodi="http://sodipodi.sourceforge.net/DTD/sodipodi-0.dtd"
   xmlns="http://www.w3.org/2000/svg"
   xmlns:svg="http://www.w3.org/2000/svg">
  <defs
     id="defs2" />
  <sodipodi:namedview
     id="namedview2"
     pagecolor="#ffffff"
     bordercolor="#000000"
     borderopacity="0.25"
     inkscape:showpageshadow="2"
     inkscape:pageopacity="0.0"
     inkscape:pagecheckerboard="0"
     inkscape:deskcolor="#d1d1d1"
     inkscape:zoom="5.7259259"
     inkscape:cx="51.607374"
     inkscape:cy="56.672057"
     inkscape:window-width="1920"
     inkscape:window-height="991"
     inkscape:window-x="-9"
     inkscape:window-y="-9"
     inkscape:window-maximized="1"
     inkscape:current-layer="svg2" />
  <path
     d="M 1.7598594,56.360057 V 3.2350572 c 0,-1.5547 0.61719,-3.04300005 1.7188,-4.14450005 1.0977,-1.09769995 2.5859,-1.71479995 4.1406,-1.71479995 H 85.744259 c 1.5547,0 3.0469,0.61719 4.1406,1.71479995 1.1016,1.1016 1.7188,2.58980005 1.7188,4.14450005 V 56.360057 c 0,1.5547 -0.61719,3.043 -1.7188,4.1445 -1.0977,1.0977 -2.5898,1.7148 -4.1406,1.7148 h -27.996 l 3.8086,10.156 h 2.3125 c 2.375,0 4.2969,1.9219 4.2969,4.2969 v 3.125 c 0,0.64844 -0.52344,1.1719 -1.1719,1.1719 h -40.625 c -0.64844,0 -1.1719,-0.52344 -1.1719,-1.1719 v -3.125 c 0,-2.375 1.9219,-4.2969 4.2969,-4.2969 h 2.3125 l 3.8086,-10.156 H 7.6194594 c -1.5547,0 -3.0469,-0.61719 -4.1406,-1.7148 -1.1016,-1.1016 -1.7188,-2.5898 -1.7188,-4.1445 z m 87.4999996,-5.8594 V 3.2346572 c 0,-0.93359 -0.37109,-1.8281 -1.0312,-2.48440005 -0.66016,-0.66016 -1.5547,-1.0312 -2.4844,-1.0312 H 7.6192594 c -0.93359,0 -1.8281,0.37109 -2.4844,1.0312 -0.66016,0.66016005 -1.0312,1.55470005 -1.0312,2.48440005 V 50.500657 Z m -81.6409996,9.375 H 85.743859 c 0.92969,0 1.8281,-0.37109 2.4844,-1.0312 0.66016,-0.66016 1.0312,-1.5547 1.0312,-2.4844 v -3.5156 H 4.1034594 v 3.5156 c 0,0.93359 0.37109,1.8281 1.0312,2.4844 0.66016,0.66016 1.5547,1.0312 2.4844,1.0312 z m 51.4339996,12.5 -3.8086,-10.156 h -17.125 l -3.8086,10.156 z m 4.8164,2.3438 h -34.375 c -1.0781,0 -1.9531,0.875 -1.9531,1.9531 v 1.9531 h 38.281 v -1.9531 c 0,-1.0781 -0.875,-1.9531 -1.9531,-1.9531 z m -12.5,-57.812 c -0.64844,0 -1.1719,-0.52344 -1.1719,-1.1719 0,-0.64846 0.52344,-1.1719 1.1719,-1.1719 h 28.125 c 0.64844,0 1.1719,0.52344 1.1719,1.1719 0,0.64846 -0.52344,1.1719 -1.1719,1.1719 z m 0,-6.25 c -0.64844,0 -1.1719,-0.52344 -1.1719,-1.1718998 0,-0.64846 0.52344,-1.1719 1.1719,-1.1719 h 28.125 c 0.64844,0 1.1719,0.52344 1.1719,1.1719 0,0.6484598 -0.52344,1.1718998 -1.1719,1.1718998 z m 0,12.5 c -0.64844,0 -1.1719,-0.52344 -1.1719,-1.1719 0,-0.64846 0.52344,-1.1719 1.1719,-1.1719 h 28.125 c 0.64844,0 1.1719,0.52344 1.1719,1.1719 0,0.64846 -0.52344,1.1719 -1.1719,1.1719 z m 0,6.25 c -0.64844,0 -1.1719,-0.52344 -1.1719,-1.1719 0,-0.64846 0.52344,-1.1719 1.1719,-1.1719 h 28.125 c 0.64844,0 1.1719,0.52344 1.1719,1.1719 0,0.64846 -0.52344,1.1719 -1.1719,1.1719 z m -35.375,7.5117 c -3.0039,-3.0352 -4.8594,-7.207 -4.8594,-11.809 0,-9.2695 7.5273,-16.7969998 16.797,-16.7969998 9.2697,0 16.797,7.5272998 16.797,16.7969998 0,9.2697 -7.5273,16.797 -16.797,16.797 -4.6016,0 -8.7734,-1.8555 -11.812,-4.8594 -0.02344,-0.01953 -0.04297,-0.03906 -0.06641,-0.0625 -0.02344,-0.02344 -0.04297,-0.04297 -0.0625,-0.06641 z m 2.582,-0.79688 c 2.5234,2.1445 5.7891,3.4414 9.3555,3.4414 7.9766,0 14.453,-6.4766 14.453,-14.453 0,-0.29688 -0.0078,-0.58594 -0.02734,-0.875 l -13.875,1.9805 z m 23.453,-14.211 c -1.2227,-5.4102 -5.4883,-9.6758 -10.898,-10.898 l -1.8164,12.715 z m -13.219,-11.227 c -0.28906,-0.01563 -0.58203,-0.02734 -0.875,-0.02734 -7.9766,0 -14.453,6.4766 -14.453,14.453 0,3.5664 1.2969,6.8359 3.4375,9.3555 l 9.9062,-9.9102 1.9844,-13.875 z m 22.562,24.973 c -0.64844,0 -1.1719,-0.52344 -1.1719,-1.1719 0,-0.64846 0.52344,-1.1719 1.1719,-1.1719 h 15.625 c 0.64844,0 1.1719,0.52344 1.1719,1.1719 0,0.64846 -0.52344,1.1719 -1.1719,1.1719 z m 0,6.25 c -0.64844,0 -1.1719,-0.52344 -1.1719,-1.1719 0,-0.64846 0.52344,-1.1719 1.1719,-1.1719 h 15.625 c 0.64844,0 1.1719,0.52344 1.1719,1.1719 0,0.64846 -0.52344,1.1719 -1.1719,1.1719 z"
     fill-rule="evenodd"
     id="path1" />
  <text
     x="-3.3182406"
     y="106.67206"
     font-size="5px"
     font-weight="bold"
     font-family="'Arbeit Regular', Helvetica, Arial-Unicode, Arial, Sans-serif"
     fill="#000000"
     id="text1">Created by Arkinasi</text>
  <text
     x="-3.3182406"
     y="111.67206"
     font-size="5px"
     font-weight="bold"
     font-family="'Arbeit Regular', Helvetica, Arial-Unicode, Arial, Sans-serif"
     fill="#000000"
     id="text2">from Noun Project</text>
  <rect
     style="fill:#000000;fill-opacity:0"
     id="rect2"
     width="104.26261"
     height="103.56403"
     x="-5"
     y="-10" />
</svg>
